<svg xmlns="http://www.w3.org/2000/svg" width="1200" height="675" viewBox="0 0 1200 675">
  <defs>
    <linearGradient id="bg" x1="0" x2="1" y1="0" y2="1">
      <stop offset="0" stop-color="#08111f"/>
      <stop offset="1" stop-color="#12355b"/>
    </linearGradient>
    <filter id="shadow" x="-20%" y="-20%" width="140%" height="140%">
      <feDropShadow dx="0" dy="8" stdDeviation="10" flood-color="#000" flood-opacity="0.35"/>
    </filter>
  </defs>
  <rect width="1200" height="675" fill="url(#bg)"/>
  <text x="60" y="70" fill="#e8f1ff" font-family="Arial, sans-serif" font-size="34" font-weight="700">Codex Mastery Lab: Daily Operating Loop</text>
  <text x="60" y="112" fill="#9ec5ff" font-family="Arial, sans-serif" font-size="18">M4 Mac mini / 16GB RAM / 256GB SSD で、Codexを安定運用するための検証サイクル</text>
  <g font-family="Arial, sans-serif" filter="url(#shadow)">
    <rect x="70" y="185" width="190" height="90" rx="18" fill="#dbeafe"/>
    <text x="165" y="222" text-anchor="middle" fill="#0f172a" font-size="19" font-weight="700">Hypothesis</text>
    <text x="165" y="250" text-anchor="middle" fill="#334155" font-size="14">仮説と評価指標</text>
    <rect x="335" y="185" width="190" height="90" rx="18" fill="#dcfce7"/>
    <text x="430" y="222" text-anchor="middle" fill="#0f172a" font-size="19" font-weight="700">Codex Run</text>
    <text x="430" y="250" text-anchor="middle" fill="#334155" font-size="14">小さなrepoで実行</text>
    <rect x="600" y="185" width="190" height="90" rx="18" fill="#fef3c7"/>
    <text x="695" y="222" text-anchor="middle" fill="#0f172a" font-size="19" font-weight="700">Verify</text>
    <text x="695" y="250" text-anchor="middle" fill="#334155" font-size="14">テスト・差分・ログ</text>
    <rect x="865" y="185" width="190" height="90" rx="18" fill="#fae8ff"/>
    <text x="960" y="222" text-anchor="middle" fill="#0f172a" font-size="19" font-weight="700">Article</text>
    <text x="960" y="250" text-anchor="middle" fill="#334155" font-size="14">note向け記事化</text>
  </g>
  <g stroke="#93c5fd" stroke-width="4" fill="none" marker-end="url(#arrow)">
    <defs><marker id="arrow" markerWidth="10" markerHeight="10" refX="8" refY="3" orient="auto"><path d="M0,0 L0,6 L9,3 z" fill="#93c5fd"/></marker></defs>
    <path d="M260 230 H330"/>
    <path d="M525 230 H595"/>
    <path d="M790 230 H860"/>
    <path d="M960 278 C960 390 190 390 165 278"/>
  </g>
  <rect x="85" y="435" width="1030" height="145" rx="22" fill="#0f172a" stroke="#38bdf8" stroke-width="2"/>
  <text x="115" y="480" fill="#e2e8f0" font-family="Arial, sans-serif" font-size="22" font-weight="700">Guardrails</text>
  <text x="115" y="520" fill="#cbd5e1" font-family="Arial, sans-serif" font-size="17">• 1日1実験  • git diff保存  • Codexログ保存  • 記事に図解を含める  • note投稿前に人間承認</text>
  <text x="115" y="552" fill="#cbd5e1" font-family="Arial, sans-serif" font-size="17">• M4/16GB向けに並列数と作業ディレクトリを制限  • 成功だけでなく失敗パターンも資産化</text>
</svg>
